<svg xmlns="http://www.w3.org/2000/svg" viewBox="0 0 100 100" fill="none">
  <!-- Flame/droplet shape with gear -->
  <defs>
    <linearGradient id="flameGradient" x1="0%" y1="0%" x2="100%" y2="100%">
      <stop offset="0%" style="stop-color:#818CF8;stop-opacity:1" />
      <stop offset="100%" style="stop-color:#6366F1;stop-opacity:1" />
    </linearGradient>
  </defs>
  
  <!-- Main flame/droplet shape -->
  <path d="M50 10 C30 10, 15 25, 15 50 C15 75, 30 90, 50 90 C70 90, 85 75, 85 50 C85 40, 80 30, 75 25 C70 20, 65 15, 60 12 C55 9, 50 10, 50 10 Z" fill="url(#flameGradient)"/>
  
  <!-- Top flame curl -->
  <path d="M50 10 C50 10, 40 15, 35 25 C30 35, 35 40, 40 38 C45 36, 50 30, 55 25 C60 20, 65 15, 60 12 C55 9, 50 10, 50 10 Z" fill="url(#flameGradient)"/>
  
  <!-- Gear in center -->
  <g transform="translate(50, 55)">
    <!-- Gear teeth -->
    <path d="M-3,-20 L3,-20 L3,-15 L5,-15 L5,-10 L3,-10 L3,-5 L5,-5 L5,0 L3,0 L3,5 L5,5 L5,10 L3,10 L3,15 L5,15 L5,20 L3,20 L3,20 L-3,20 L-3,15 L-5,15 L-5,10 L-3,10 L-3,5 L-5,5 L-5,0 L-3,0 L-3,-5 L-5,-5 L-5,-10 L-3,-10 L-3,-15 L-5,-15 L-5,-20 Z" fill="white" transform="rotate(0)"/>
    <path d="M-3,-20 L3,-20 L3,-15 L5,-15 L5,-10 L3,-10 L3,-5 L5,-5 L5,0 L3,0 L3,5 L5,5 L5,10 L3,10 L3,15 L5,15 L5,20 L3,20 L3,20 L-3,20 L-3,15 L-5,15 L-5,10 L-3,10 L-3,5 L-5,5 L-5,0 L-3,0 L-3,-5 L-5,-5 L-5,-10 L-3,-10 L-3,-15 L-5,-15 L-5,-20 Z" fill="white" transform="rotate(45)"/>
    <path d="M-3,-20 L3,-20 L3,-15 L5,-15 L5,-10 L3,-10 L3,-5 L5,-5 L5,0 L3,0 L3,5 L5,5 L5,10 L3,10 L3,15 L5,15 L5,20 L3,20 L3,20 L-3,20 L-3,15 L-5,15 L-5,10 L-3,10 L-3,5 L-5,5 L-5,0 L-3,0 L-3,-5 L-5,-5 L-5,-10 L-3,-10 L-3,-15 L-5,-15 L-5,-20 Z" fill="white" transform="rotate(90)"/>
    <path d="M-3,-20 L3,-20 L3,-15 L5,-15 L5,-10 L3,-10 L3,-5 L5,-5 L5,0 L3,0 L3,5 L5,5 L5,10 L3,10 L3,15 L5,15 L5,20 L3,20 L3,20 L-3,20 L-3,15 L-5,15 L-5,10 L-3,10 L-3,5 L-5,5 L-5,0 L-3,0 L-3,-5 L-5,-5 L-5,-10 L-3,-10 L-3,-15 L-5,-15 L-5,-20 Z" fill="white" transform="rotate(135)"/>
    
    <!-- Gear body -->
    <circle cx="0" cy="0" r="15" fill="white"/>
    <!-- Gear center hole -->
    <circle cx="0" cy="0" r="6" fill="url(#flameGradient)"/>
  </g>
</svg>