<svg xmlns="http://www.w3.org/2000/svg" viewBox="0 0 200 40" fill="none">
  <!-- Logo icon scaled and positioned -->
  <g transform="translate(5, 5) scale(0.06)">
    <path d="M 300 100 Q 350 50, 400 100 Q 450 150, 400 200 Q 350 250, 300 300 L 300 100 Z M 200 300 L 200 500 Q 200 550, 250 600 Q 300 650, 350 650 Q 450 650, 500 600 Q 550 550, 550 450 Q 550 350, 500 300 Q 450 250, 350 250 L 300 300 L 300 400 L 350 400 Q 400 400, 400 450 Q 400 500, 350 500 Q 300 500, 300 450 L 300 300 Z M 350 425 A 25 25 0 1 1 350 475 A 25 25 0 1 1 350 425 Z M 325 375 L 325 350 L 350 340 L 375 350 L 375 375 L 390 390 L 400 415 L 390 440 L 375 425 L 375 450 L 350 460 L 325 450 L 325 425 L 310 440 L 300 415 L 310 390 L 325 375 Z" fill="#5E72E4"/>
  </g>
  
  <!-- Text -->
  <text x="50" y="26" font-family="system-ui, -apple-system, BlinkMacSystemFont, 'Segoe UI', Roboto, 'Helvetica Neue', Arial, sans-serif" font-size="20" font-weight="600" fill="#E5E7EB">BryanLabs</text>
</svg>