<svg xmlns="http://www.w3.org/2000/svg" viewBox="0 0 100 100" fill="none">
  <defs>
    <linearGradient id="iconGradient" x1="0%" y1="0%" x2="100%" y2="100%">
      <stop offset="0%" style="stop-color:#818CF8;stop-opacity:1" />
      <stop offset="50%" style="stop-color:#6366F1;stop-opacity:1" />
      <stop offset="100%" style="stop-color:#4F46E5;stop-opacity:1" />
    </linearGradient>
  </defs>
  
  <!-- Flame/water drop shape -->
  <path d="
    M 50 5
    C 50 5, 25 20, 25 50
    C 25 70, 35 85, 50 85
    C 65 85, 75 70, 75 50
    C 75 35, 65 25, 60 20
    C 58 18, 56 15, 54 12
    L 50 5
    
    M 50 5
    C 50 5, 40 15, 35 25
    C 32 30, 32 35, 36 34
    C 40 33, 45 28, 50 20
    C 52 17, 54 12, 50 5
  " fill="url(#iconGradient)"/>
  
  <!-- Gear shape -->
  <g transform="translate(50, 55)">
    <!-- Outer gear teeth -->
    <path d="
      M -4,-18 L -4,-22 L 4,-22 L 4,-18
      L 7,-16 L 9,-19 L 15,-15 L 13,-12
      L 16,-7 L 19,-9 L 22,-3 L 18,-1
      L 18,4 L 22,4 L 22,12 L 18,12
      L 16,15 L 19,17 L 15,23 L 12,21
      L 7,24 L 9,27 L 3,30 L 1,26
      L -4,26 L -4,30 L -12,30 L -12,26
      L -15,24 L -17,27 L -23,23 L -21,20
      L -24,15 L -27,17 L -30,11 L -26,9
      L -26,4 L -30,4 L -30,-4 L -26,-4
      L -24,-7 L -27,-9 L -23,-15 L -20,-13
      L -15,-16 L -17,-19 L -11,-22 L -9,-18
      Z
    " fill="white"/>
    
    <!-- Inner circle -->
    <circle cx="0" cy="0" r="8" fill="url(#iconGradient)"/>
  </g>
</svg>