<svg xmlns="http://www.w3.org/2000/svg" viewBox="0 0 32 32" fill="none">
  <defs>
    <linearGradient id="flameGradient" x1="0%" y1="0%" x2="0%" y2="100%">
      <stop offset="0%" style="stop-color:#818CF8;stop-opacity:1" />
      <stop offset="50%" style="stop-color:#6366F1;stop-opacity:1" />
      <stop offset="100%" style="stop-color:#8B5CF6;stop-opacity:1" />
    </linearGradient>
  </defs>
  
  <!-- Thicker flame shape for better visibility -->
  <path d="
    M 16 3
    C 16 3, 8 8, 8 18
    C 8 24, 11 28, 16 28
    C 21 28, 24 24, 24 18
    C 24 12, 21 8, 19 6
    C 18 5, 16 3, 16 3
    Z
  " fill="url(#flameGradient)" stroke="url(#flameGradient)" stroke-width="1"/>
  
  <!-- Simplified gear with thicker elements -->
  <g transform="translate(16, 19)">
    <!-- Gear teeth as a star shape -->
    <path d="
      M 0,-8 L 2,-2 L 8,-2 L 3,1 L 5,7 L 0,3 L -5,7 L -3,1 L -8,-2 L -2,-2 Z
    " fill="white" opacity="0.95"/>
    <!-- Center -->
    <circle cx="0" cy="0" r="3" fill="url(#flameGradient)"/>
  </g>
</svg>