<svg xmlns="http://www.w3.org/2000/svg" viewBox="0 0 100 100" fill="none">
  <!-- dYdX logo inspired design -->
  <rect width="100" height="100" rx="20" fill="#1C1C28"/>
  <g transform="translate(15, 25)">
    <!-- Stylized dYdX text -->
    <path d="M 10 30 Q 10 15, 20 15 Q 30 15, 30 30 Q 30 45, 20 45 Q 10 45, 10 30" fill="#6966FF"/>
    <path d="M 25 20 L 35 40 L 30 40 L 25 30 L 20 40 L 15 40 L 25 20" fill="#6966FF"/>
    <path d="M 40 30 Q 40 15, 50 15 Q 60 15, 60 30 Q 60 45, 50 45 Q 40 45, 40 30" fill="#FFFFFF" opacity="0.9"/>
    <path d="M 55 20 L 65 40 L 60 40 L 55 30 L 50 40 L 45 40 L 55 20" fill="#FFFFFF" opacity="0.9"/>
  </g>
</svg>